<?xml version="1.0" standalone="no"?>
<!DOCTYPE svg PUBLIC "-//W3C//DTD SVG 20010904//EN"
 "http://www.w3.org/TR/2001/REC-SVG-20010904/DTD/svg10.dtd">
<svg version="1.0" xmlns="http://www.w3.org/2000/svg"
 width="24.000000pt" height="24.000000pt" viewBox="0 0 24.000000 24.000000"
 preserveAspectRatio="xMidYMid meet">

<g transform="translate(0.000000,24.000000) scale(0.100000,-0.100000)"
fill="#000000" stroke="none">
<path d="M0 120 c0 -73 4 -120 10 -120 6 0 10 47 10 120 0 73 -4 120 -10 120
-6 0 -10 -47 -10 -120z"/>
<path d="M50 160 l0 -60 92 0 92 0 -27 28 -27 28 25 24 c14 13 25 27 25 32 0
4 -40 8 -90 8 l-90 0 0 -60z"/>
</g>
</svg>
